<?xml version="1.0" encoding="utf-8"?>
<!-- Generator: Adobe Illustrator 26.0.3, SVG Export Plug-In . SVG Version: 6.00 Build 0)  -->
<svg version="1.0" id="Layer_1" xmlns="http://www.w3.org/2000/svg" xmlns:xlink="http://www.w3.org/1999/xlink" x="0px" y="0px"
	 viewBox="0 0 258.7 186.8" style="enable-background:new 0 0 258.7 186.8;" xml:space="preserve">
<style type="text/css">
	.st0{fill:#006BFF;}
	.st1{fill:#0AE8F0;}
</style>
<g id="Layer_2">
	<g id="Layer_1-2">
		<g id="Wordmark">
			<path class="st0" d="M147.6,88.4c3.4-0.1,6.2,2.5,6.5,5.8h-13.5C141.1,90.8,144.1,88.2,147.6,88.4 M153.7,100.2
				c-1.3,1.9-3.5,3-5.8,2.8c-3.8,0-6.6-2.1-7.3-5.7h16.9c0.1-0.5,0.1-1,0.1-1.6c0-5.7-4-10.7-10.1-10.7c-5.7-0.2-10.4,4.3-10.6,9.9
				c0,0.2,0,0.5,0,0.7c0,6.1,4.3,10.6,10.8,10.6c3.6,0.1,6.9-1.6,8.9-4.6L153.7,100.2z"/>
			<rect x="131.9" y="76.4" class="st0" width="3.5" height="29.5"/>
			<path class="st0" d="M177.2,93.4v12.4h-3.5V93.6c0-3.3-1.9-5.2-5-5.2s-5.9,1.9-5.9,6.7v10.7h-3.5V85.6h3.5v2.9
				c1.4-2.3,3.9-3.6,6.6-3.4C174.1,85.1,177.2,88.3,177.2,93.4"/>
			<path class="st0" d="M196.6,95.7c0-4-3.3-7.1-7.2-7.1c-4,0-7.1,3.3-7.1,7.2c0,3.9,3.2,7.1,7.2,7.1c3.9,0.1,7.1-3,7.2-6.9
				C196.6,95.9,196.6,95.8,196.6,95.7 M200.1,76.4v29.5h-3.5v-3.5c-1.7,2.6-4.6,4.1-7.6,4c-5.9-0.2-10.5-5.1-10.3-11
				c0.2-5.6,4.7-10.1,10.3-10.3c3.1-0.1,6,1.4,7.6,4V76.4H200.1z"/>
			<rect x="203" y="76.4" class="st0" width="3.5" height="29.5"/>
			<path class="st0" d="M125.6,95.7c0-4-3.3-7.1-7.2-7.1c-4,0-7.1,3.3-7.1,7.2c0,3.9,3.2,7.1,7.1,7.1c3.9,0.1,7.1-3,7.2-6.9
				C125.6,95.9,125.6,95.8,125.6,95.7 M129.1,85.6v20.2h-3.5v-3.4c-1.7,2.6-4.6,4.1-7.6,4c-5.9-0.2-10.5-5.1-10.3-11
				c0.2-5.6,4.7-10.1,10.3-10.3c3.1-0.1,6,1.4,7.6,4v-3.5H129.1z"/>
			<path class="st0" d="M102.6,102c-5.7,2.1-12-0.7-14.2-6.4c-2.1-5.7,0.7-12,6.4-14.2c4.5-1.7,9.6-0.3,12.6,3.6l3-2.2
				c-5-6.4-14.2-7.6-20.6-2.7c-6.4,5-7.6,14.2-2.7,20.6c5,6.4,14.2,7.6,20.6,2.7h0.1l-2-3.2C104.8,101,103.7,101.6,102.6,102"/>
			<path class="st0" d="M223.4,85.6v11.5c0,3.7-2.1,6.1-5.4,6.1s-5.7-2.3-5.7-6.1V85.6h-3.6v11.1c0,5.8,3.6,9.6,9.2,9.6
				c4.8,0,5.6-3.1,5.6-3.1v4.2c0,4.1-1.8,6.4-5.5,6.4c-2.7,0-5.1-2-5.4-4.7l-3.2,1.1c0.9,4,4.5,6.8,8.6,6.8c5.7,0,8.9-3.8,8.9-9.6
				V85.6H223.4z"/>
		</g>
		<g id="Brand_mark">
			<path class="st0" d="M60.4,97.4c-1.6,1.7-3.8,2.7-6.1,2.7h-1.9c-2.1,0-4.2-0.8-5.7-2.3c-1.4-1.5-2.2-3.4-2.1-5.4v-2.5
				c0-2.1,0.8-4,2.2-5.5c1.5-1.5,3.5-2.3,5.6-2.3h1.8c2.3,0,4.6,1,6.2,2.7c1.5,1.6,3.6,2.4,5.8,2.3c0.5,0,1,0,1.5-0.1l0,0
				c-0.2-0.5-0.4-1-0.7-1.4l-2.2-3.7c-2-3.4-5.6-5.5-9.6-5.5h-4.3c-4,0-7.6,2.1-9.6,5.5l-2.2,3.7c-2,3.4-2,7.7,0,11.1l2.2,3.8
				c2,3.4,5.6,5.5,9.6,5.5h4.3c4,0,7.6-2.1,9.6-5.5l2.2-3.7c0.3-0.4,0.5-0.9,0.7-1.4l0,0c-0.5-0.1-1-0.1-1.5-0.1
				C64,95,61.9,95.8,60.4,97.4"/>
			<path class="st0" d="M54.2,84.4h-1.9c-2.9-0.1-5.4,2.1-5.6,5.1c0,0.1,0,0.3,0,0.4v2.5c-0.1,2.9,2.3,5.4,5.2,5.4
				c0.1,0,0.2,0,0.4,0h1.8c4.9,0,4.5-5,11.9-5c0.7,0,1.4,0.1,2.1,0.2c0.2-1.3,0.2-2.6,0-3.8c-0.7,0.1-1.4,0.2-2.1,0.2
				C58.8,89.4,59.2,84.4,54.2,84.4"/>
			<path class="st0" d="M72.5,94.8c-1.3-0.9-2.7-1.5-4.3-1.8l0,0c-0.1,0.7-0.3,1.5-0.6,2.2c1.3,0.2,2.5,0.7,3.5,1.4l0,0
				c-3.1,10-13.7,15.6-23.8,12.6S31.7,95.5,34.8,85.4s13.7-15.6,23.8-12.6c6,1.9,10.7,6.6,12.6,12.6l0,0c-1,0.8-2.2,1.2-3.5,1.4
				c0.3,0.7,0.5,1.4,0.6,2.2l0,0c1.5-0.2,3-0.8,4.3-1.6c0.9-0.5,1.2-1.6,0.8-2.5c-3.5-11.2-15.4-17.5-26.6-14.1
				c-11.2,3.5-17.5,15.4-14.1,26.6s15.4,17.5,26.6,14.1c6.7-2.1,12-7.3,14.1-14.1C73.7,96.5,73.4,95.4,72.5,94.8"/>
			<path class="st1" d="M67.6,87c-0.5,0.1-1,0.1-1.5,0.1c-2.2,0.1-4.3-0.7-5.8-2.3c-1.6-1.7-3.8-2.6-6.1-2.7h-1.9
				c-2.1,0-4.1,0.8-5.6,2.3c-1.4,1.5-2.2,3.4-2.2,5.5v2.5c0,2,0.8,4,2.2,5.5c1.5,1.5,3.5,2.3,5.6,2.2h1.8c2.3,0,4.6-1,6.2-2.7
				c1.5-1.6,3.6-2.5,5.8-2.3c0.5,0,1,0,1.5,0.1c0.3-0.7,0.5-1.4,0.6-2.2l0,0c-0.7-0.1-1.4-0.2-2.1-0.2c-7.4,0-7,5-11.9,5h-1.9
				c-2.9,0.1-5.4-2.2-5.5-5.1c0-0.1,0-0.2,0-0.3v-2.6c-0.1-2.9,2.3-5.4,5.2-5.5c0.1,0,0.2,0,0.3,0h1.8c4.9,0,4.5,5,11.9,5
				c0.7,0,1.4-0.1,2.1-0.2l0,0C68.1,88.5,67.9,87.8,67.6,87"/>
			<path class="st1" d="M67.6,87c-0.5,0.1-1,0.1-1.5,0.1c-2.2,0.1-4.3-0.7-5.8-2.3c-1.6-1.7-3.8-2.6-6.1-2.7h-1.9
				c-2.1,0-4.1,0.8-5.6,2.3c-1.4,1.5-2.2,3.4-2.2,5.5v2.5c0,2,0.8,4,2.2,5.5c1.5,1.5,3.5,2.3,5.6,2.2h1.8c2.3,0,4.6-1,6.2-2.7
				c1.5-1.6,3.6-2.5,5.8-2.3c0.5,0,1,0,1.5,0.1c0.3-0.7,0.5-1.4,0.6-2.2l0,0c-0.7-0.1-1.4-0.2-2.1-0.2c-7.4,0-7,5-11.9,5h-1.9
				c-2.9,0.1-5.4-2.2-5.5-5.1c0-0.1,0-0.2,0-0.3v-2.6c-0.1-2.9,2.3-5.4,5.2-5.5c0.1,0,0.2,0,0.3,0h1.8c4.9,0,4.5,5,11.9,5
				c0.7,0,1.4-0.1,2.1-0.2l0,0C68.1,88.5,67.9,87.8,67.6,87"/>
		</g>
	</g>
</g>
</svg>
