<?xml version="1.0" encoding="UTF-8"?>
<svg id="Layer_2" data-name="Layer 2" xmlns="http://www.w3.org/2000/svg" viewBox="0 0 353.67 131.08">
  <defs>
    <style>
      .cls-1 {
        fill: #fff;
        stroke-width: 0px;
      }
    </style>
  </defs>
  <g id="Layer_1-2" data-name="Layer 1">
    <g>
      <path class="cls-1" d="M240.15,29.57h29.51l3.94-16.89h-5.3v-4.31c0-4.18-4-7.58-8.93-7.58h-7.55c-4.92,0-8.93,3.4-8.93,7.58v4.31h-5.3l2.54,16.89ZM246.08,8.38c0-2.43,2.58-4.4,5.75-4.4h7.55c3.17,0,5.75,1.97,5.75,4.4v4.31h-19.05v-4.31Z"/>
      <path class="cls-1" d="M0,23.18v104.92h55.42l28.03-28.03h-32.79l-27.47,27.47V29.58c0-3.53,2.86-6.4,6.4-6.4h85.89L134.57,0H23.18C10.37,0,0,10.37,0,23.18Z"/>
      <path class="cls-1" d="M50.84,54.8v18.96h59.43l23.42-23.19H55.07c-2.34,0-4.23,1.89-4.23,4.23Z"/>
      <path class="cls-1" d="M182.56,94.26v-40.93h8.1v-13.5h-8.1v-.54c0-3.49.95-5.89,2.83-7.24,1.89-1.34,4.8-2.01,8.71-2.01,3.62,0,7.87.29,12.73.87v-12.85c-4.64-1.01-8.89-1.52-12.73-1.52-17.06,0-25.58,7.58-25.58,22.75v.54h-7.84v13.5h7.84v40.93h14.04Z"/>
      <rect class="cls-1" x="201.09" y="39.82" width="14.05" height="54.43"/>
      <path class="cls-1" d="M353.67,53.32v-13.5h-12.3v-15.24l-14.04,4.25v10.99h-10.32v13.5h10.32v22.64c0,7.48,1.98,12.66,5.94,15.57,3.95,2.9,10.76,3.81,20.41,2.72v-12.73c-2.69.14-4.93.16-6.75.05-1.82-.11-3.19-.6-4.14-1.47-.95-.87-1.42-2.25-1.42-4.14v-22.64h12.3Z"/>
      <path class="cls-1" d="M243.36,62.58c0-3.63.98-6.4,2.94-8.33,1.91-1.88,4.44-2.83,7.59-2.87.14-.01.28-.01.42-.01.14,0,.28,0,.42,0,3.15.05,5.68,1,7.59,2.88,1.96,1.93,2.94,4.69,2.94,8.33v31.68h14.05v-33.42c0-4.83-.94-9.77-3.65-13.85-.65-.98-1.38-1.88-2.18-2.7-2.5-2.57-5.67-4.35-9.24-5.25-3.91-.99-7.99-1.03-12.01-.91-5.38.16-10.6.86-14.97,4.25-.75.58-1.46,1.22-2.13,1.91-3.88,3.99-5.83,9.51-5.83,16.55v33.42h14.05v-31.68Z"/>
      <rect class="cls-1" x="293.47" y="39.91" width="14.04" height="54.62"/>
      <path class="cls-1" d="M307.51,28.04c.45-1.02.67-2.13.67-3.31,0-2.33-.85-4.37-2.56-6.12-1.71-1.75-3.76-2.63-6.16-2.63s-4.34.88-6.04,2.63c-1.71,1.75-2.56,3.79-2.56,6.12s.84,4.35,2.56,6.06c.41.42.85.79,1.3,1.11l12.78-3.86Z"/>
      <polygon class="cls-1" points="188.37 100.83 181.6 115.04 174.74 100.83 169.67 100.83 168.76 123.92 173.26 123.92 173.85 108.28 179.89 120.86 183.08 120.86 188.93 108.25 189.48 123.92 194.2 123.92 193.3 100.83 188.37 100.83"/>
      <path class="cls-1" d="M211.79,118.71v-5.55c0-3.87-2.47-5.81-6.85-5.81-2.23,0-4.77.51-6.66,1.83l1.3,2.86c1.26-.69,2.94-1.15,4.52-1.15,1.94,0,3.35.72,3.35,2.57v.66c-.87-.18-2.07-.35-3.3-.35-4.37,0-6.99,2.15-6.99,5.35s2.65,5.12,5.79,5.12c1.8,0,3.82-.63,4.9-2.28.31,1.59,2.18,2.25,4.55,2.25l.51-3.11c-.87-.49-1.12-1.06-1.12-2.4ZM207.44,117.93c0,1.81-1.94,2.89-3.67,2.89-1.23,0-2.42-.54-2.42-1.95s1.08-2.12,3.37-2.12c1.01,0,2.05.16,2.72.31v.88Z"/>
      <path class="cls-1" d="M220.07,110.12h-.03s-.36-2.44-.36-2.44h-3.61v16.24h4.39v-6.81c0-3.02.68-5.62,3.7-5.62.57,0,1.1.09,1.65.26l.69-4.06c-.7-.23-1.38-.34-2.12-.34-2.11,0-3.43.88-4.31,2.77Z"/>
      <polygon class="cls-1" points="243.66 107.68 238.39 107.68 234.13 113.15 233.06 113.15 233.06 99.76 228.66 100.54 228.66 123.92 233.06 123.92 233.06 117.04 234.14 117.04 238.95 123.92 244.22 123.92 237.98 115 243.66 107.68"/>
      <path class="cls-1" d="M252.72,107.35c-4.57,0-8.23,3.23-8.23,8.55s3.84,8.35,8.46,8.35c2.45,0,4.79-.82,6.43-2.18l-1.96-2.69c-1.18.87-2.58,1.42-4.14,1.42-2.48,0-4.13-1.43-4.39-3.75h11.46c.04-.37.07-.97.07-1.47,0-4.69-2.91-8.23-7.69-8.23ZM248.94,114.26c.3-2.05,1.72-3.39,3.74-3.39,2.12,0,3.3,1.49,3.51,3.39h-7.24Z"/>
      <path class="cls-1" d="M269,101.99l-4.38.78v4.91h-2.76v3.69h2.76v6.88c0,4.6,3.74,6,7.29,6l.53-3.55c-2.13-.4-3.44-.94-3.44-3.58v-5.76h3.8v-3.69h-3.8v-5.69Z"/>
      <path class="cls-1" d="M284.7,107.35c-2.1,0-4,.81-5.18,2.51l-.32-2.18h-3.6v23.4l4.39-.78v-8.06c1.22,1.42,2.9,2.01,4.77,2.01,5,0,7.36-4.02,7.36-8.38,0-4.98-3-8.52-7.43-8.52ZM283.8,120.37c-2.52,0-3.94-1.98-3.94-4.53,0-2.39,1.24-4.66,3.89-4.66,2.43,0,4.01,1.9,4.01,4.63s-1.49,4.56-3.96,4.56Z"/>
      <path class="cls-1" d="M299.62,118.32v-18.56l-4.38.78v19.56c0,2.79,2.44,4.15,5.05,4.15l.57-3.46c-1-.51-1.23-1.13-1.23-2.47Z"/>
      <path class="cls-1" d="M317.54,118.71v-5.55c0-3.87-2.47-5.81-6.85-5.81-2.23,0-4.77.51-6.66,1.83l1.3,2.86c1.26-.69,2.94-1.15,4.52-1.15,1.94,0,3.35.72,3.35,2.57v.66c-.87-.18-2.07-.35-3.3-.35-4.37,0-6.99,2.15-6.99,5.35s2.65,5.12,5.79,5.12c1.8,0,3.82-.63,4.9-2.28.31,1.59,2.18,2.25,4.55,2.25l.51-3.11c-.87-.49-1.12-1.06-1.12-2.4ZM313.2,117.93c0,1.81-1.94,2.89-3.67,2.89-1.23,0-2.42-.54-2.42-1.95s1.08-2.12,3.37-2.12c1.01,0,2.05.16,2.72.31v.88Z"/>
      <path class="cls-1" d="M329.9,120.42c-2.65,0-4.54-1.9-4.54-4.64s1.91-4.61,4.57-4.61c1.24,0,2.49.41,3.53,1.12l1.82-3.02c-1.48-1.2-3.7-1.91-5.88-1.91-4.65,0-8.47,3.22-8.47,8.54s4.19,8.36,8.43,8.36c2.32,0,4.5-.84,6.17-2.14l-2.08-2.85c-1.04.74-2.3,1.17-3.55,1.17Z"/>
      <path class="cls-1" d="M345.04,107.35c-4.58,0-8.23,3.22-8.23,8.55s3.84,8.35,8.46,8.35c2.46,0,4.8-.81,6.43-2.18l-1.96-2.69c-1.17.87-2.57,1.43-4.13,1.43-2.48,0-4.14-1.44-4.4-3.75h11.46c.03-.37.07-.96.07-1.47,0-4.7-2.91-8.23-7.69-8.23ZM341.25,114.25c.3-2.05,1.73-3.39,3.73-3.39,2.12,0,3.31,1.5,3.51,3.39h-7.25Z"/>
    </g>
  </g>
</svg>