<svg clip-rule="evenodd" fill-rule="evenodd" stroke-linejoin="round" stroke-miterlimit="2" viewBox="0 0 560 400" xmlns="http://www.w3.org/2000/svg"><g transform="matrix(3.90927 0 0 3.91304 32.9976 79.7671)"><g transform="translate(0 5.552)"><path d="m2.62 31.853c-.947.002-1.824-.507-2.292-1.33-.461-.818-.433-1.827.072-2.618l4.72-7.412c.491-.81 1.383-1.294 2.33-1.266.946.023 1.81.555 2.255 1.39.44.832.385 1.833-.142 2.614l-4.717 7.412c-.486.757-1.327 1.214-2.226 1.21z" fill="#f62b54" fill-rule="nonzero"/><path d="m10.716 31.853c-.952 0-1.828-.509-2.288-1.327-.46-.815-.432-1.822.072-2.611l4.711-7.395c.484-.821 1.379-1.317 2.332-1.293.96.021 1.83.558 2.27 1.398.437.84.373 1.847-.17 2.626l-4.71 7.395c-.484.754-1.321 1.21-2.217 1.207z" fill="#fc0" fill-rule="nonzero"/><ellipse cx="18.631" cy="29.536" fill="#00ca72" rx="2.43" ry="2.379"/></g><g fill="#333"><path d="m124.197 32.847c.734 0 1.173.522 1.173 1.377v2.93h.997v-2.997c0-1.454-.685-2.297-1.973-2.297-.504 0-1.304.138-1.781 1.065-.225-.556-.74-.945-1.337-1.01-.185-.034-.373-.045-.56-.033-.41.033-1.14.288-1.413.866v-.777h-.998v5.183h.998v-2.797c0-1.088.712-1.51 1.425-1.51.668 0 1.107.511 1.107 1.366v2.941h.992v-2.797c0-.866.52-1.52 1.37-1.51zm-9.555 3.441c.456.01.896-.172 1.215-.502.32-.33.49-.779.473-1.24 0-1.044-.768-1.699-1.688-1.699-.921 0-1.688.655-1.688 1.699-.018.46.152.908.47 1.237.318.33.756.513 1.21.505zm0 .972c-1.458 0-2.675-1.077-2.675-2.72s1.217-2.686 2.675-2.686 2.685 1.043 2.685 2.686-1.234 2.725-2.692 2.725zm-7.81-2.72-.01.006c0-1.643 1.249-2.686 2.717-2.692.745-.014 1.463.288 1.973.832l-.756.644c-.324-.318-.763-.494-1.217-.488-.92 0-1.72.655-1.72 1.698 0 .705.419 1.34 1.062 1.61s1.383.12 1.875-.378l.767.644c-.512.55-1.233.857-1.984.844-1.457 0-2.707-1.077-2.707-2.72zm-3.193 1.619c0-.002 0-.005 0-.008 0-.375.307-.685.682-.69.375.005.682.315.682.69v.008c-.018.362-.319.651-.682.655-.363-.004-.664-.293-.682-.655z" fill-rule="nonzero"/><path d="m106.367 25.382h-3.551l-2.489 6.417-2.476-6.417h-3.551l4.317 10.14-2.685 6.704h3.525zm-21.596 5.64c0 1.62 1.416 2.686 2.807 2.686 1.367 0 2.71-.992 2.71-2.687s-1.343-2.688-2.71-2.688c-1.391 0-2.807 1.067-2.807 2.688zm5.517 5.663v-1.284c-.72 1.09-2.4 1.502-3.262 1.502-2.854 0-5.709-2.25-5.709-5.882 0-3.631 2.854-5.881 5.709-5.881.719 0 2.399.24 3.262 1.5v-1.254h3.31v11.3zm-9.913-.001h-3.31v-1.404c-.553 1.04-1.894 1.646-3.286 1.646-2.879 0-5.422-2.299-5.422-5.859 0-3.627 2.543-5.929 5.422-5.929 1.39 0 2.735.58 3.286 1.621v-7.533h3.31zm-3.382-5.688c0-1.694-1.223-2.687-2.59-2.687-1.416 0-2.592 1.065-2.592 2.687 0 1.674 1.176 2.734 2.591 2.734 1.393.002 2.591-1.112 2.591-2.734zm-16.82-.292c0-1.718.888-2.299 2.063-2.299 1.127 0 1.943.75 1.943 2.25v6.027h3.334v-6.752c0-3.218-1.584-4.792-4.103-4.792-1.319 0-2.638.75-3.238 1.888v-1.644h-3.332v11.3h3.333zm-10.103 6.172c-3.166 0-5.807-2.323-5.807-5.881 0-3.56 2.638-5.86 5.807-5.86s5.83 2.3 5.83 5.86-2.664 5.882-5.83 5.882zm0-3.29c1.39 0 2.543-1.018 2.543-2.59 0-1.525-1.152-2.566-2.543-2.566-.677-.01-1.329.258-1.802.741-.476.486-.735 1.145-.717 1.825.001 1.574 1.152 2.59 2.519 2.59zm-11.784-5.18c.983 0 1.847.775 1.847 2.25v6.028h3.31v-6.418c0-3.412-1.659-5.13-4.318-5.13-.79 0-2.278.24-3.358 2.008-.624-1.307-1.823-1.985-3.595-1.985-1.254-.006-2.402.725-2.926 1.864v-1.64h-3.336v11.3h3.333v-5.979c0-1.718.936-2.299 1.943-2.299.96 0 1.822.75 1.847 2.178v6.1h3.334v-5.979c0-1.643.864-2.297 1.919-2.297z"/></g></g></svg>